<svg width="21" height="21" viewBox="0 0 21 21" fill="none" xmlns="http://www.w3.org/2000/svg">
<path fill-rule="evenodd" clip-rule="evenodd" d="M5 3.57706C4.17157 3.57706 3.5 4.24863 3.5 5.07706V16.0001C3.5 16.8286 4.17157 17.5001 5 17.5001H15.9231C16.7515 17.5001 17.4231 16.8286 17.4231 16.0001V12.3078C17.4231 11.4794 18.0947 10.8078 18.9231 10.8078C19.7515 10.8078 20.4231 11.4794 20.4231 12.3078V16.0001C20.4231 18.4854 18.4084 20.5001 15.9231 20.5001H5C2.51472 20.5001 0.5 18.4854 0.5 16.0001V5.07706C0.5 2.59178 2.51472 0.577057 5 0.577057H8.69231C9.52074 0.577057 10.1923 1.24863 10.1923 2.07706C10.1923 2.90548 9.52074 3.57706 8.69231 3.57706H5Z" fill="white"/>
</svg>
